<svg xmlns="http://www.w3.org/2000/svg" width="800" height="800" viewBox="-16 0 256 256" preserveAspectRatio="xMidYMid" xmlns:v="https://vecta.io/nano"><path d="M207.953 52.162L127.317 4.287c-9.584-5.716-21.531-5.716-31.115 0L15.55 52.162C5.849 58.014-.058 68.54 0 79.869v95.733c-.053 11.324 5.853 21.842 15.55 27.691l80.636 47.859a30.39 30.39 0 0 0 31.115 0l80.636-47.859c9.708-5.849 15.621-16.374 15.566-27.708V79.869c.058-11.33-5.848-21.855-15.55-27.708z" fill="#fff"/><path d="M208.412 52.277l-80.814-47.98a30.44 30.44 0 0 0-31.183 0l-80.83 47.98C5.862 58.142-.058 68.69 0 80.045v95.944c-.053 11.349 5.866 21.89 15.584 27.752l80.814 47.964c9.606 5.725 21.577 5.725 31.183 0l80.814-47.964c9.729-5.861 15.655-16.411 15.6-27.769V80.045c.059-11.355-5.861-21.903-15.584-27.769zM99.23 246.803l-80.814-47.964C10.43 194 5.566 185.328 5.6 175.99V80.045a26.59 26.59 0 0 1 12.817-22.849L99.23 9.216a24.92 24.92 0 0 1 25.536 0l80.749 47.98c6.657 4.032 11.198 10.793 12.412 18.48-2.686-5.712-8.722-7.282-15.761-3.236l-76.396 47.317c-9.531 5.55-16.554 11.813-16.571 23.302v94.213c0 6.877 2.767 11.328 7.039 12.638a24.76 24.76 0 0 1-4.24.405c-4.494-.003-8.904-1.216-12.768-3.512z" fill="#2f3a3e"/><path d="M187.007 185.06l-20.086 12.013a1.47 1.47 0 0 0-.92 1.308v5.28c0 .646.436.904.969.597l20.393-12.401c.499-.374.738-1.003.614-1.615v-4.634c-.016-.597-.484-.856-.969-.549z" fill="#3ab14a"/><path d="M144.263 140.832c.646-.323 1.179 0 1.195.92l.065 7.008c2.415-1.097 5.11-1.424 7.718-.937.501.129.71.807.517 1.615l-1.534 6.152a2.65 2.65 0 0 1-.694 1.227c-.119.117-.255.215-.404.291a.92.92 0 0 1-.597.097c-2.543-.563-5.205-.136-7.444 1.195a9.35 9.35 0 0 0-5.506 8.283c0 3.229 1.615 4.117 7.25 4.214 7.444.129 10.673 3.375 10.754 10.883a26.69 26.69 0 0 1-9.882 20.135l.129 6.878a2.52 2.52 0 0 1-1.179 2.099l-4.069 2.341c-.646.323-1.179 0-1.195-.904v-6.765c-3.488 1.453-7.024 1.792-9.284.888-.42-.161-.614-.791-.436-1.518l1.469-6.216a2.6 2.6 0 0 1 .727-1.292c.115-.11.246-.203.388-.274.211-.095.451-.095.662 0 2.878.78 5.949.392 8.542-1.082 3.742-1.805 6.173-5.536 6.313-9.688 0-3.488-1.921-4.941-6.459-4.973-5.861 0-11.303-1.13-11.416-9.688a25.03 25.03 0 0 1 9.462-19.15l-.291-7.04c-.003-.867.443-1.673 1.179-2.131l4.021-2.567z" fill="#fff"/></svg>