<svg xmlns="http://www.w3.org/2000/svg" width="800" height="800" viewBox="0 0 64 64" xmlns:v="https://vecta.io/nano"><g fill="#274c77"><path d="M32,51h-3l-2-2H10V19h4v24s12.15-3,18,8Z"/><path d="M50 43V19h4v30H37l-2 2h-3c5.85-11 18-8 18-8z"/></g><g fill="#6096ba"><path d="M32 51c-5.85-11-18-8-18-8V16l6-2v25a12 12 0 0 1 12 12z"/><path d="M44 14l6 2v27s-12.15-3-18 8a12 12 0 0 1 12-12V14z"/></g><path d="M32 25a12 12 0 0 0-12-12v26a12 12 0 0 1 12 12 12 12 0 0 1 12-12V13a12 12 0 0 0-12 12z" fill="#a3cef1"/></svg>