<svg xmlns="http://www.w3.org/2000/svg" viewBox="0 0 495 495" xmlns:v="https://vecta.io/nano"><path d="M422.509 72.491C375.763 25.745 313.609 0 247.5 0S119.237 25.745 72.491 72.491 0 181.39 0 247.5s25.744 128.262 72.491 175.009S181.391 495 247.5 495c33.404 0 65.819-6.546 96.345-19.458l-15.582-36.84C302.694 449.517 275.521 455 247.5 455 133.084 455 40 361.916 40 247.5S133.084 40 247.5 40 455 133.084 455 247.5c0 48.147-28.042 69.699-55.833 69.699s-55.834-21.551-55.834-69.699c0-52.843-42.99-95.833-95.833-95.833s-95.833 42.991-95.833 95.833 42.99 95.833 95.833 95.833c28.55 0 54.219-12.554 71.791-32.426 18.099 30.556 49.107 46.291 79.876 46.291C446.79 357.199 495 319.518 495 247.5c0-66.11-25.744-128.262-72.491-175.009zM247.5 303.333c-30.786 0-55.833-25.047-55.833-55.833s25.047-55.833 55.833-55.833 55.833 25.047 55.833 55.833-25.047 55.833-55.833 55.833z" fill="#2488ff"/></svg>