<svg xmlns="http://www.w3.org/2000/svg" width="28" height="28" fill="none" xmlns:v="https://vecta.io/nano"><path d="M16.338 1.944l9.632 7.88.05.055c.15.165.38.428.574.741.186.299.406.749.406 1.276v13.102A2 2 0 0 1 25 27h-6.24a1.5 1.5 0 0 1-1.5-1.5v-4.706a3.25 3.25 0 0 0-3.243-3.253 3.25 3.25 0 0 0-3.243 3.253V25.5a1.5 1.5 0 0 1-1.5 1.5H3a2 2 0 0 1-2-2.002V11.743c0-.652.363-1.178.57-1.44.121-.152.239-.276.326-.362l.111-.105.036-.032.012-.011.005-.004.003-.002s.001-.001.645.764l-.644-.765.01-.008 9.555-7.832c1.316-1.261 3.392-1.262 4.709-.002zM3.352 11.316l-.006.005-.049.046c-.045.044-.104.106-.16.177a1.05 1.05 0 0 0-.124.19L3 11.767v13.231.002l.001.001h5.773v-4.206a5.25 5.25 0 0 1 5.243-5.253 5.25 5.25 0 0 1 5.243 5.253V25h5.739l.001-.001v-.002-13.102c-.003-.014-.021-.086-.105-.221a3.01 3.01 0 0 0-.307-.397l-9.584-7.841-.033-.032c-.549-.54-1.426-.539-1.974.001l-.033.032-9.612 7.878z" fill="#000" fill-rule="evenodd"/></svg>