<svg xmlns="http://www.w3.org/2000/svg" height="682.667" viewBox="0 -79 512 512" width="682.667" xmlns:v="https://vecta.io/nano"><g fill="#285680"><path d="M194.207 0v141.242H0V17.656c-.016-2.02.344-4.027 1.06-5.914A17.56 17.56 0 0 1 15.27.176c.793-.102 1.6-.16 2.387-.176zm0 0"/><path d="M194.207 0v141.242H0V17.656C.027 7.918 7.918.027 17.656 0zm0 0"/><path d="M512 17.656V335.45c-.027 9.738-7.914 17.625-17.656 17.652H17.656A17.71 17.71 0 0 1 0 335.449V141.242h194.207V0h300.137A17.71 17.71 0 0 1 512 17.656zm0 0"/></g><g fill="#ecf0f1"><path d="M194.207 119.438v21.805h-30.012L0 21.805v-4.148C.027 7.918 7.918.027 17.656 0h12.36zm0 0"/><path d="M194.207 0v21.805L30.016 141.242H0v-21.805L164.195 0zm0 0"/><path d="M194.207 52.965v35.31h-79.45v52.97H79.45v-52.97H0v-35.31h79.45V0h35.31v52.965zm0 0"/></g><g fill="#c03a2b"><path d="M194.207 130.297v10.945H179.2l-63.027-45.816c-.535-.37-1.008-.816-1.414-1.324v-5.824h21.63zM79.45 47.14v5.824H57.82L1.06 11.742A17.56 17.56 0 0 1 15.273.176l1.324.883 61.438 44.758a6.49 6.49 0 0 1 1.414 1.324zm0 0"/><path d="M79.45 88.273V94.1c-.402.508-.88.953-1.4 1.324L15.02 141.24H0v-10.945l57.82-42.02h21.63zM194.207 0v10.945l-57.82 42.02h-21.63V47.14a6.51 6.51 0 0 1 1.414-1.324L179.2 0zm0 0"/></g><path d="M104.574 176.55l12.082 30.625 31.48-9.64-16.402 28.54 27.164 18.602-32.547 4.97 2.398 32.836-24.176-22.34-24.18 22.34 2.4-32.836-32.547-4.97L77.4 226.074 61 197.535l31.477 9.64zM392.828 17.656l6.88 17.414L417.6 29.6l-9.332 16.234 15.45 10.574-18.512 2.824 1.367 18.672L392.83 65.19l-13.754 12.703 1.37-18.672-18.516-2.824 15.45-10.574-9.33-16.224 17.902 5.48zM348.7 88.273l6.875 17.418 17.902-5.48-9.332 16.234 15.45 10.574-18.512 2.824 1.37 18.672-13.754-12.703-13.754 12.703 1.367-18.672-18.512-2.824 15.45-10.574-9.332-16.234 17.902 5.48zm105.93-16.097l6.88 17.406 17.902-5.48-9.332 16.234 15.45 10.574-18.512 2.832 1.367 18.672-13.754-12.703-13.754 12.703 1.37-18.672-18.512-2.832 15.445-10.574-9.328-16.234 17.902 5.48zM384 204.6l6.88 17.406 17.902-5.48-9.332 16.234 15.45 10.574-18.512 2.832 1.367 18.672L384 252.125l-13.754 12.703 1.37-18.672-18.512-2.832 15.445-10.574-9.328-16.234 17.902 5.48zm0 0" fill="#ecf0f1"/><g fill="#c03a2b"><path d="M0 61.793h194.207V79.45H0zm0 0"/><path d="M88.277 0h17.652v141.242H88.277zm0 0"/></g><path d="M440.02 150.066l5.73 11.63 12.836 1.863-9.29 9.047 2.19 12.773-11.47-6.027-11.477 6.027 2.19-12.773-9.277-9.047 12.824-1.863zm0 0" fill="#ecf0f1"/></svg>