<svg xmlns="http://www.w3.org/2000/svg" height="681.333" viewBox="1 -79 511.999 511" width="681.333" xmlns:v="https://vecta.io/nano"><path d="M397.242 353.602h97.102c9.75 0 17.656-7.902 17.656-17.652V18.156A17.66 17.66 0 0 0 494.344.5H17.656A17.66 17.66 0 0 0 0 18.156V335.95c0 9.75 7.902 17.652 17.656 17.652zm0 0" fill="#4c8056"/><path d="M79.45 168.223L256 282.984l176.55-114.762L256 53.465zm0 0" fill="#f3d55b"/><path d="M317.793 168.223a60.56 60.56 0 0 1-11.652 36.02c-4.055 5.762-9.11 10.754-14.918 14.742-10.324 7.22-22.625 11.07-35.223 11.03-16.39.012-32.117-6.492-43.707-18.086a61.73 61.73 0 0 1-18.086-43.707c-.016-.473.016-.945.086-1.414a57.42 57.42 0 0 1 4.063-20.656c10.625-27.832 39.61-44.11 68.906-38.695s50.55 30.973 50.53 60.766zm0 0" fill="#3b97d3"/><path d="M306.14 204.242c-4.055 5.762-9.11 10.754-14.918 14.742l-.883-4.945c-3.54-19.945-16.012-37.176-33.86-46.762a66.2 66.2 0 0 0-57.684-2.406l-4.5 1.94c.066-7.078 1.44-14.078 4.06-20.656 8.605-2.965 17.648-4.457 26.75-4.414 38.113-.12 71.47 25.602 81.035 62.5zm0 0" fill="#ecf0f1"/></svg>