<svg xmlns="http://www.w3.org/2000/svg" height="682.667" viewBox="0 -79 512 512" width="682.667" xmlns:v="https://vecta.io/nano"><path d="M512 17.656V335.45c-.027 9.738-7.914 17.625-17.656 17.652h-70.62V0h70.62A17.71 17.71 0 0 1 512 17.656zM88.277 0v353.102h-70.62C7.914 353.074.027 345.188 0 335.45V17.656C.027 7.914 7.914.027 17.656 0zm0 0" fill="#c03a2b"/><path d="M88.277 0h335.445v353.102H88.277zm0 0" fill="#e6e7e8"/><path d="M380.82 180.852l-27.72-21.63v-35.96l-62.4 28.793 34.695-64.77H283.72L256 44.137l-27.72 43.148h-41.668l34.695 64.77-62.4-28.793v35.96l-27.72 21.63 55.434 28.7-20.742 28.793h80.418l-7.945 79.45h35.313l-7.945-79.45h80.418l-20.742-28.793zm0 0" fill="#c03a2b"/></svg>