<svg xmlns="http://www.w3.org/2000/svg" height="682.667" viewBox="0 -79 512 512" width="682.667" xmlns:v="https://vecta.io/nano"><path d="M397.242 353.105h97.102c9.75 0 17.656-7.906 17.656-17.656V17.656A17.66 17.66 0 0 0 494.344 0H17.656A17.66 17.66 0 0 0 0 17.656V335.45c0 9.75 7.902 17.652 17.656 17.652h379.586zm0 0" fill="#f29c1f"/><path d="M512 247.172v88.277c-.027 9.738-7.914 17.625-17.656 17.656H17.656C7.914 353.074.027 345.187 0 335.45v-88.277zm0 0" fill="#4c8056"/><path d="M0 97.105h512V256H0zm0 0" fill="#e6e7e8"/><path d="M256 264.828c-48.754 0-88.277-39.523-88.277-88.277S207.246 88.277 256 88.277s88.277 39.52 88.277 88.273c-.055 48.73-39.547 88.223-88.277 88.277zm0-158.898c-39.004 0-70.62 31.62-70.62 70.62s31.617 70.62 70.62 70.62 70.62-31.617 70.62-70.62c-.047-38.984-31.637-70.574-70.62-70.62zm44.137 61.793H277.3l16.145-16.14a8.84 8.84 0 0 0 2.297-8.531c-.816-3.05-3.2-5.434-6.25-6.25a8.84 8.84 0 0 0-8.531 2.297l-16.14 16.145v-22.828a8.83 8.83 0 0 0-8.828-8.828c-4.88 0-8.828 3.95-8.828 8.828v22.828L231.03 139.1c-2.227-2.234-5.48-3.1-8.53-2.297a8.83 8.83 0 0 0-6.246 6.25 8.82 8.82 0 0 0 2.297 8.531l16.14 16.14h-22.83a8.83 8.83 0 0 0-8.828 8.828 8.83 8.83 0 0 0 8.828 8.828h22.828l-16.14 16.145c-2.238 2.227-3.113 5.48-2.297 8.53s3.195 5.43 6.246 6.246a8.82 8.82 0 0 0 8.53-2.297l16.145-16.14v22.828A8.83 8.83 0 0 0 256 229.52a8.83 8.83 0 0 0 8.828-8.828v-22.828l16.14 16.14a8.83 8.83 0 0 0 8.531 2.297c3.05-.816 5.434-3.2 6.25-6.246s-.062-6.305-2.297-8.535l-16.145-16.14h22.828a8.83 8.83 0 0 0 8.828-8.828 8.83 8.83 0 0 0-8.828-8.828zm0 0" fill="#2c3e50"/></svg>