<svg xmlns="http://www.w3.org/2000/svg" height="682.667" viewBox="0 -79 512 512" width="682.667" xmlns:v="https://vecta.io/nano"><path d="M397.242 353.105h97.102c9.75 0 17.656-7.906 17.656-17.656V17.656A17.66 17.66 0 0 0 494.344 0H17.656A17.66 17.66 0 0 0 0 17.656V335.45c0 9.75 7.902 17.652 17.656 17.652h379.586zm0 0" fill="#c03a2b"/><path d="M512 238.344v97.105c-.027 9.738-7.914 17.625-17.656 17.652H17.656C7.914 353.074.027 345.187 0 335.45v-97.102h512zm0 0" fill="#285680"/><path d="M0 114.758h512v123.586H0zm0 0" fill="#fff"/></svg>