<svg xmlns="http://www.w3.org/2000/svg" height="682.667" viewBox="0 -79 512 512" width="682.667" xmlns:v="https://vecta.io/nano"><path d="M397.242 353.105h97.102c9.75 0 17.656-7.906 17.656-17.656V17.656A17.66 17.66 0 0 0 494.344 0H17.656A17.66 17.66 0 0 0 0 17.656V335.45c0 9.75 7.902 17.652 17.656 17.652h379.586zm0 0" fill="#c03a2b"/><path d="M344.72 291.313H512V61.793H0v229.52zm0 0" fill="#f0c419"/><path d="M123.586 158.898h35.31v35.31h-35.31zm0 0" fill="#fff"/><path d="M88.277 158.898h35.31v35.31h-35.31zm0 0" fill="#d75e72"/><path d="M158.898 194.207v17.656c.008 7.027-2.78 13.766-7.746 18.734a26.44 26.44 0 0 1-18.738 7.746h-17.652c-7.027.008-13.77-2.777-18.738-7.746s-7.754-11.71-7.746-18.734v-17.656zm0 0" fill="#f0c419"/><path d="M158.898 194.207v17.656c0 14.625-5.93 26.48-13.242 26.48h-22.07v-44.137zm0 0" fill="#d75e72"/><g fill="#f0c419"><path d="M123.586 141.242v17.656h-35.31a8.86 8.86 0 0 1-8.828-8.828v-8.828c.027-9.738 7.914-17.63 17.652-17.656h8.828a17.7 17.7 0 0 1 17.656 17.656zm0 0"/><path d="M167.723 141.242v8.828c-.012 4.867-3.957 8.813-8.828 8.828h-35.31v-17.656a17.7 17.7 0 0 1 17.656-17.656h8.828c9.738.027 17.625 7.918 17.652 17.656zm0 0"/></g><path d="M61.793 247.172H44.137a8.83 8.83 0 0 1-8.828-8.828 8.83 8.83 0 0 1 8.828-8.828v-70.62a8.83 8.83 0 0 1 8.828-8.828 8.83 8.83 0 0 1 8.828 8.828v70.62a8.83 8.83 0 0 1 8.828 8.828 8.83 8.83 0 0 1-8.828 8.828zm141.242 0H185.38a8.83 8.83 0 0 1-8.828-8.828 8.83 8.83 0 0 1 8.828-8.828v-70.62a8.83 8.83 0 0 1 8.828-8.828 8.83 8.83 0 0 1 8.828 8.828v70.62a8.83 8.83 0 0 1 8.828 8.828 8.83 8.83 0 0 1-8.828 8.828zm0 0" fill="#fff"/><path d="M150.07 114.758h-8.828c-3.016.03-6.004.582-8.828 1.63v-10.453a8.83 8.83 0 0 0-8.828-8.828 8.83 8.83 0 0 0-8.828 8.828v10.453c-2.828-1.047-5.812-1.598-8.828-1.63h-8.828c-14.62.016-26.47 11.863-26.484 26.484v8.828a17.6 17.6 0 0 0 8.828 15.199v46.594c.023 19.492 15.82 35.29 35.313 35.31H132.4c19.492-.02 35.29-15.816 35.313-35.31V165.27a17.61 17.61 0 0 0 8.828-15.199v-8.828c-.016-14.62-11.863-26.47-26.48-26.484zm-8.828 17.656h8.828a8.84 8.84 0 0 1 8.828 8.828v8.828h-26.484v-8.828c.004-4.875 3.953-8.824 8.828-8.828zm8.828 52.965h-17.656v-17.652h17.656zm-35.312 0H97.102v-17.652h17.656zm-26.48-44.137c.004-4.875 3.953-8.824 8.828-8.828h8.828a8.84 8.84 0 0 1 8.828 8.828v8.828H88.277zm8.824 70.62v-8.828h17.656v26.48c-9.746-.008-17.645-7.906-17.656-17.652zm35.313 17.656v-26.484h17.656v8.828c-.012 9.746-7.9 17.645-17.656 17.656zm0 0" fill="#c03a2b"/></svg>