<svg xmlns="http://www.w3.org/2000/svg" height="682.667" viewBox="0 -79 512.004 512" width="682.667" xmlns:v="https://vecta.io/nano"><path d="M512 17.66v317.793a16.1 16.1 0 0 1-1.148 6.18 17.83 17.83 0 0 1-14.566 11.387 13.41 13.41 0 0 1-1.941.086H17.656c-.648.02-1.297-.012-1.94-.086-6.598-.785-12.21-5.176-14.566-11.387A16.1 16.1 0 0 1 0 335.453V17.66a16.1 16.1 0 0 1 1.148-6.18C3.504 5.27 9.117.88 15.715.094c.645-.074 1.293-.105 1.94-.086h476.688a13.41 13.41 0 0 1 1.941.086 17.83 17.83 0 0 1 14.566 11.387A16.1 16.1 0 0 1 512 17.66zm0 0" fill="#285680"/><path d="M512 17.66a16.1 16.1 0 0 0-1.148-6.18A17.83 17.83 0 0 0 496.285.094a13.41 13.41 0 0 0-1.941-.086H465.39L308.965 107.88V.008h-105.93v107.87L46.61.008H17.656c-.648-.02-1.297.012-1.94.086C9.117.88 3.504 5.27 1.148 11.48A16.1 16.1 0 0 0 0 17.66v14.477L132.6 123.6H.004v105.934h132.5L.004 320.977v14.477c-.03 2.113.36 4.215 1.148 6.18 2.352 6.21 7.965 10.602 14.563 11.387.645.074 1.293.105 1.945.086h28.953l156.422-107.87v107.87h105.93v-107.87l156.426 107.87h28.953c.648.02 1.297-.012 1.94-.086 6.598-.785 12.21-5.176 14.566-11.387a16.1 16.1 0 0 0 1.148-6.18v-14.477l-132.6-91.453H512V123.6H379.496L512 32.137zm0 0" fill="#ecf0f1"/><g fill="#c03a2b"><path d="M510.852 341.633a17.83 17.83 0 0 1-14.566 11.387l-179.1-123.496h31.25zM194.824 123.6h-31.25L1.148 11.48A17.84 17.84 0 0 1 15.715.094zm0 0"/><path d="M510.852 11.48L348.25 123.6h-30.988L496.285.094a17.83 17.83 0 0 1 14.566 11.387zM194.738 229.523L15.715 353.02c-6.598-.785-12.2-5.176-14.566-11.387l162.605-112.1zm0 0"/><path d="M.004 158.902H512v35.31H.004zm0 0"/><path d="M238.344.008h35.313v353.098h-35.312zm0 0"/></g></svg>