<svg xmlns="http://www.w3.org/2000/svg" xmlns:xlink="http://www.w3.org/1999/xlink" viewBox="0 0 512 512" xmlns:v="https://vecta.io/nano"><path d="M473.655 88.276h-435.3C17.167 88.276 0 105.443 0 126.62v258.76c0 21.177 17.167 38.345 38.345 38.345h435.3c21.177 0 38.345-17.167 38.345-38.345V126.62c0-21.178-17.167-38.345-38.345-38.345z" fill="#f5f5f5"/><path d="M2.1 114.08h507.8c-5.196-15.017-19.452-25.804-36.235-25.804h-435.3c-16.784 0-31.04 10.787-36.236 25.804zM0 191.5h512v25.803H0zm0-51.62h512v25.803H0zm0 120.194a8.83 8.83 0 0 0 8.828 8.828H512v-25.804H0v16.976zm0 86.246h512v25.804H0zm509.9 51.6H2.1c5.197 15.017 19.453 25.804 36.236 25.804h435.3c16.784 0 31.04-10.787 36.236-25.804zM0 294.7h512v25.803H0z" fill="#ff4b55"/><path d="M8.828 268.902h220.7a8.83 8.83 0 0 0 8.828-8.828V97.103a8.83 8.83 0 0 0-8.828-8.828H38.345C17.167 88.276 0 105.443 0 126.62v133.453a8.83 8.83 0 0 0 8.828 8.828z" fill="#41479b"/><g fill="#f5f5f5"><path d="M24.8 108.537l1.954 5.86 6.177.047c.8.007 1.13 1.027.488 1.502l-4.97 3.67 1.864 5.9c.242.762-.627 1.394-1.278.928L24 122.84l-5.025 3.592c-.65.466-1.518-.166-1.278-.928l1.864-5.9-4.97-3.67c-.643-.476-.312-1.496.488-1.502l6.177-.047 1.954-5.86c.252-.76 1.324-.76 1.578-.001zm0 30.653l1.954 5.86 6.177.047c.8.007 1.13 1.026.488 1.502l-4.97 3.67 1.864 5.9c.242.762-.627 1.394-1.278.928L24 153.496l-5.025 3.592c-.65.465-1.518-.166-1.278-.928l1.864-5.9-4.97-3.67c-.643-.476-.312-1.495.488-1.502l6.177-.047 1.954-5.86c.252-.76 1.324-.76 1.578-.001zm0 30.656l1.954 5.86 6.177.047c.8.007 1.13 1.026.488 1.502l-4.97 3.67 1.864 5.9c.242.762-.627 1.394-1.278.928L24 184.15l-5.025 3.592c-.65.465-1.518-.165-1.278-.928l1.864-5.9-4.97-3.67c-.643-.476-.312-1.495.488-1.502l6.177-.047 1.954-5.86c.252-.76 1.324-.76 1.578-.001zm0 30.654l1.954 5.86 6.177.047c.8.007 1.13 1.027.488 1.502l-4.97 3.67 1.864 5.9c.242.762-.627 1.394-1.278.928L24 214.805l-5.025 3.592c-.65.465-1.518-.166-1.278-.928l1.864-5.9-4.97-3.67c-.643-.474-.312-1.495.488-1.502l6.177-.047 1.954-5.86c.252-.76 1.324-.76 1.578-.001zm0 30.654l1.954 5.86 6.177.047c.8.007 1.13 1.026.488 1.502l-4.97 3.67 1.864 5.9c.242.762-.627 1.394-1.278.928L24 245.46l-5.025 3.592c-.65.465-1.518-.166-1.278-.928l1.864-5.9-4.97-3.67c-.643-.476-.312-1.495.488-1.502l6.177-.047 1.954-5.86c.252-.76 1.324-.76 1.578-.001z"/><use xlink:href="#B"/><use xlink:href="#C"/><use xlink:href="#D"/><use xlink:href="#E"/><path d="M72.375 108.537l1.954 5.86 6.177.047c.8.007 1.13 1.027.488 1.502l-4.97 3.67 1.864 5.89c.242.762-.627 1.394-1.278.928l-5.025-3.592-5.025 3.592c-.65.466-1.518-.166-1.278-.928l1.864-5.89-4.97-3.67c-.643-.476-.312-1.496.488-1.502l6.177-.047 1.954-5.86c.252-.76 1.325-.76 1.578 0z"/><use xlink:href="#F"/><path d="M72.375 169.846l1.954 5.86 6.177.047c.8.007 1.13 1.026.488 1.502l-4.97 3.67 1.864 5.9c.242.762-.627 1.394-1.278.928l-5.025-3.592-5.025 3.592c-.65.465-1.518-.165-1.278-.928l1.864-5.9-4.97-3.67c-.643-.476-.312-1.495.488-1.502l6.177-.047 1.954-5.86c.252-.76 1.325-.76 1.578 0zm0 30.654l1.954 5.86 6.177.047c.8.007 1.13 1.027.488 1.502l-4.97 3.67 1.864 5.9c.242.762-.627 1.394-1.278.928l-5.025-3.592-5.025 3.592c-.65.465-1.518-.166-1.278-.928l1.864-5.9-4.97-3.67c-.643-.474-.312-1.495.488-1.502l6.177-.047 1.954-5.86c.252-.76 1.325-.76 1.578 0z"/><use xlink:href="#F" y="91.964"/><path d="M96.17 123.566l1.954 5.86 6.177.047c.8.007 1.13 1.027.488 1.502l-4.97 3.67 1.864 5.9c.242.762-.627 1.394-1.278.928l-5.025-3.592-5.025 3.592c-.65.465-1.518-.166-1.278-.928l1.864-5.9-4.97-3.67c-.643-.476-.312-1.495.488-1.502l6.177-.047 1.954-5.86c.25-.758 1.325-.758 1.578 0zm0 30.654l1.954 5.86 6.177.047c.8.007 1.13 1.027.488 1.502l-4.97 3.67 1.864 5.9c.242.762-.627 1.394-1.278.928l-5.025-3.592-5.025 3.592c-.65.465-1.518-.165-1.278-.928l1.864-5.9-4.97-3.67c-.643-.474-.312-1.495.488-1.502l6.177-.047 1.954-5.86c.25-.76 1.325-.76 1.578 0zm0 30.655l1.954 5.86 6.177.047c.8.007 1.13 1.026.488 1.502l-4.97 3.67 1.864 5.9c.242.762-.627 1.394-1.278.928l-5.025-3.592-5.025 3.592c-.65.465-1.518-.166-1.278-.928l1.864-5.9-4.97-3.67c-.643-.476-.312-1.495.488-1.502l6.177-.047 1.954-5.86c.25-.76 1.325-.76 1.578 0zm0 30.655l1.954 5.86 6.177.047c.8.007 1.13 1.026.488 1.502l-4.97 3.67 1.864 5.9c.242.762-.627 1.394-1.278.928l-5.025-3.592-5.025 3.592c-.65.466-1.518-.166-1.278-.928l1.864-5.9-4.97-3.67c-.643-.476-.312-1.495.488-1.502l6.177-.047 1.954-5.86c.25-.758 1.325-.758 1.578 0zm23.792-106.993l1.954 5.86 6.177.047c.8.007 1.13 1.027.488 1.502l-4.97 3.67 1.864 5.9c.242.762-.627 1.394-1.278.928l-5.026-3.6-5.025 3.592c-.65.466-1.518-.166-1.278-.928l1.864-5.9-4.97-3.67c-.643-.476-.312-1.496.488-1.502l6.177-.047 1.954-5.86c.253-.76 1.326-.76 1.58-.001z"/><use xlink:href="#G"/><path d="M119.962 169.846l1.954 5.86 6.177.047c.8.007 1.13 1.026.488 1.502l-4.97 3.67 1.864 5.9c.242.762-.627 1.394-1.278.928l-5.026-3.593-5.025 3.592c-.65.465-1.518-.166-1.278-.928l1.864-5.9-4.97-3.67c-.643-.476-.312-1.495.488-1.502l6.177-.047 1.954-5.86c.253-.758 1.326-.758 1.58.001zm0 30.654l1.954 5.86 6.177.047c.8.007 1.13 1.027.488 1.502l-4.97 3.67 1.864 5.9c.242.762-.627 1.394-1.278.928l-5.026-3.592-5.025 3.592c-.65.465-1.518-.166-1.278-.928l1.864-5.9-4.97-3.67c-.643-.474-.312-1.495.488-1.502l6.177-.047 1.954-5.86c.253-.76 1.326-.76 1.58 0z"/><use xlink:href="#G" y="91.964"/><path d="M143.755 123.566l1.954 5.86 6.177.047c.8.007 1.13 1.027.488 1.502l-4.97 3.67 1.864 5.9c.242.762-.627 1.394-1.278.928l-5.025-3.592-5.025 3.592c-.65.465-1.518-.166-1.278-.928l1.864-5.9-4.97-3.67c-.643-.476-.312-1.495.488-1.502l6.177-.047 1.954-5.86c.253-.758 1.325-.758 1.578 0zm0 30.654l1.954 5.86 6.177.047c.8.007 1.13 1.027.488 1.502l-4.97 3.67 1.864 5.9c.242.762-.627 1.394-1.278.928l-5.025-3.592-5.025 3.592c-.65.465-1.518-.165-1.278-.928l1.864-5.9-4.97-3.67c-.643-.474-.312-1.495.488-1.502l6.177-.047 1.954-5.86c.253-.76 1.325-.76 1.578 0zm0 30.655l1.954 5.86 6.177.047c.8.007 1.13 1.026.488 1.502l-4.97 3.67 1.864 5.9c.242.762-.627 1.394-1.278.928l-5.025-3.592-5.025 3.592c-.65.465-1.518-.166-1.278-.928l1.864-5.9-4.97-3.67c-.643-.476-.312-1.495.488-1.502l6.177-.047 1.954-5.86c.253-.76 1.325-.76 1.578 0zm0 30.655l1.954 5.86 6.177.047c.8.007 1.13 1.026.488 1.502l-4.97 3.67 1.864 5.9c.242.762-.627 1.394-1.278.928l-5.025-3.592-5.025 3.592c-.65.466-1.518-.166-1.278-.928l1.864-5.9-4.97-3.67c-.643-.476-.312-1.495.488-1.502l6.177-.047 1.954-5.86c.253-.758 1.325-.758 1.578 0zm23.795-106.993l1.954 5.86 6.177.047c.8.007 1.13 1.027.488 1.502l-4.97 3.67 1.864 5.9c.242.762-.627 1.394-1.278.928l-5.025-3.592-5.025 3.592c-.65.466-1.518-.166-1.278-.928l1.864-5.9-4.97-3.67c-.643-.476-.312-1.496.488-1.502l6.177-.047 1.954-5.86c.25-.76 1.325-.76 1.578 0z"/><use xlink:href="#H"/><path d="M167.55 169.846l1.954 5.86 6.177.047c.8.007 1.13 1.026.488 1.502l-4.97 3.67 1.864 5.9c.242.762-.627 1.394-1.278.928l-5.025-3.592-5.025 3.592c-.65.465-1.518-.165-1.278-.928l1.864-5.9-4.97-3.67c-.643-.476-.312-1.495.488-1.502l6.177-.047 1.954-5.86c.25-.76 1.325-.76 1.578 0zm0 30.654l1.954 5.86 6.177.047c.8.007 1.13 1.027.488 1.502l-4.97 3.67 1.864 5.9c.242.762-.627 1.394-1.278.928l-5.025-3.592-5.025 3.592c-.65.465-1.518-.166-1.278-.928l1.864-5.9-4.97-3.67c-.643-.474-.312-1.495.488-1.502l6.177-.047 1.954-5.86c.25-.76 1.325-.76 1.578 0z"/><use xlink:href="#H" y="91.964"/><use xlink:href="#B" x="142.76"/><use xlink:href="#C" x="142.76"/><use xlink:href="#D" x="142.76"/><use xlink:href="#E" x="142.76"/><path d="M215.136 108.537l1.954 5.86 6.177.047c.8.007 1.13 1.027.488 1.502l-4.97 3.67 1.864 5.89c.242.762-.627 1.394-1.278.928l-5.025-3.592-5.025 3.592c-.65.466-1.518-.166-1.278-.928l1.864-5.89-4.97-3.67c-.643-.476-.312-1.496.488-1.502l6.177-.047 1.954-5.86c.252-.76 1.324-.76 1.578 0z"/><use xlink:href="#I"/><path d="M215.136 169.846l1.954 5.86 6.177.047c.8.007 1.13 1.026.488 1.502l-4.97 3.67 1.864 5.9c.242.762-.627 1.394-1.278.928l-5.025-3.592-5.025 3.592c-.65.465-1.518-.165-1.278-.928l1.864-5.9-4.97-3.67c-.643-.476-.312-1.495.488-1.502l6.177-.047 1.954-5.86c.252-.76 1.324-.76 1.578 0zm0 30.654l1.954 5.86 6.177.047c.8.007 1.13 1.027.488 1.502l-4.97 3.67 1.864 5.9c.242.762-.627 1.394-1.278.928l-5.025-3.592-5.025 3.592c-.65.465-1.518-.166-1.278-.928l1.864-5.9-4.97-3.67c-.643-.474-.312-1.495.488-1.502l6.177-.047 1.954-5.86c.252-.76 1.324-.76 1.578 0z"/><use xlink:href="#I" y="91.964"/></g><defs ><path id="B" d="M48.582 123.566l1.954 5.86 6.177.047c.8.007 1.13 1.027.488 1.502l-4.97 3.67 1.864 5.89c.242.762-.627 1.394-1.278.928l-5.025-3.592-5.025 3.592c-.65.465-1.518-.166-1.278-.928l1.864-5.89-4.97-3.67c-.643-.476-.312-1.495.488-1.502l6.177-.047 1.954-5.86c.252-.758 1.325-.758 1.578 0z"/><path id="C" d="M48.582 154.22l1.954 5.86 6.177.047c.8.007 1.13 1.027.488 1.502l-4.97 3.67 1.864 5.89c.242.762-.627 1.394-1.278.928l-5.025-3.592-5.025 3.592c-.65.465-1.518-.165-1.278-.928l1.864-5.89-4.97-3.67c-.643-.474-.312-1.495.488-1.502l6.177-.047 1.954-5.86c.252-.76 1.325-.76 1.578 0z"/><path id="D" d="M48.582 184.875l1.954 5.86 6.177.047c.8.007 1.13 1.026.488 1.502l-4.97 3.67 1.864 5.89c.242.762-.627 1.394-1.278.928l-5.025-3.592-5.025 3.592c-.65.465-1.518-.166-1.278-.928l1.864-5.89-4.97-3.67c-.643-.476-.312-1.495.488-1.502l6.177-.047 1.954-5.86c.252-.76 1.325-.76 1.578 0z"/><path id="E" d="M48.582 215.53l1.954 5.86 6.177.047c.8.007 1.13 1.026.488 1.502l-4.97 3.67 1.864 5.89c.242.762-.627 1.394-1.278.928l-5.025-3.592-5.025 3.592c-.65.466-1.518-.166-1.278-.928l1.864-5.89-4.97-3.67c-.643-.476-.312-1.495.488-1.502l6.177-.047 1.954-5.86c.252-.758 1.325-.758 1.578 0z"/><path id="F" d="M72.375 139.19l1.954 5.86 6.177.047c.8.007 1.13 1.026.488 1.502l-4.97 3.67 1.864 5.89c.242.762-.627 1.394-1.278.928l-5.025-3.592-5.025 3.592c-.65.465-1.518-.166-1.278-.928l1.864-5.89-4.97-3.67c-.643-.476-.312-1.495.488-1.502l6.177-.047 1.954-5.86c.252-.758 1.325-.758 1.578 0z"/><path id="G" d="M119.962 139.19l1.954 5.86 6.177.047c.8.007 1.13 1.026.488 1.502l-4.97 3.67 1.864 5.89c.242.762-.627 1.394-1.278.928l-5.026-3.592-5.025 3.592c-.65.465-1.518-.166-1.278-.928l1.864-5.89-4.97-3.67c-.643-.476-.312-1.495.488-1.502l6.177-.047 1.954-5.86c.253-.758 1.326-.758 1.58 0z"/><path id="H" d="M167.55 139.19l1.954 5.86 6.177.047c.8.007 1.13 1.026.488 1.502l-4.97 3.67 1.864 5.89c.242.762-.627 1.394-1.278.928l-5.025-3.592-5.025 3.592c-.65.465-1.518-.166-1.278-.928l1.864-5.89-4.97-3.67c-.643-.476-.312-1.495.488-1.502l6.177-.047 1.954-5.86c.25-.758 1.325-.758 1.578 0z"/><path id="I" d="M215.136 139.19l1.954 5.86 6.177.047c.8.007 1.13 1.026.488 1.502l-4.97 3.67 1.864 5.89c.242.762-.627 1.394-1.278.928l-5.025-3.592-5.025 3.592c-.65.465-1.518-.166-1.278-.928l1.864-5.89-4.97-3.67c-.643-.476-.312-1.495.488-1.502l6.177-.047 1.954-5.86c.252-.758 1.324-.758 1.578 0z"/></defs></svg>